<mxfile host="65bd71144e">
    <diagram id="hHdJGKTvjGsbfF0z0zgZ" name="Page-1">
        <mxGraphModel dx="1899" dy="1640" grid="1" gridSize="10" guides="1" tooltips="1" connect="1" arrows="1" fold="1" page="1" pageScale="1" pageWidth="827" pageHeight="1169" math="0" shadow="0">
            <root>
                <mxCell id="0"/>
                <mxCell id="1" parent="0"/>
                <mxCell id="2" value="&lt;font size=&quot;3&quot;&gt;App&lt;/font&gt;" style="rounded=1;whiteSpace=wrap;html=1;strokeColor=#00FF00;" vertex="1" parent="1">
                    <mxGeometry x="290" y="40" width="120" height="60" as="geometry"/>
                </mxCell>
                <mxCell id="3" value="&lt;pre&gt;&lt;font style=&quot;font-size: 24px&quot;&gt;&lt;u style=&quot;font-weight: normal ; background-color: rgb(0 , 0 , 0)&quot;&gt;Components&lt;/u&gt;&lt;/font&gt;&lt;/pre&gt;" style="text;html=1;align=center;verticalAlign=middle;resizable=0;points=[];autosize=1;strokeColor=none;fillColor=none;fontSize=24;" vertex="1" parent="1">
                    <mxGeometry x="310" y="-40" width="160" height="80" as="geometry"/>
                </mxCell>
                <mxCell id="4" value="&lt;span style=&quot;font-size: 14px&quot;&gt;Article&lt;/span&gt;" style="rounded=1;whiteSpace=wrap;html=1;fontSize=18;strokeColor=#00CC00;" vertex="1" parent="1">
                    <mxGeometry x="190" y="130" width="120" height="60" as="geometry"/>
                </mxCell>
                <mxCell id="31" value="" style="edgeStyle=none;html=1;fontSize=11;strokeColor=#FFFFFF;" edge="1" parent="1" source="5" target="24">
                    <mxGeometry relative="1" as="geometry"/>
                </mxCell>
                <mxCell id="5" value="&lt;span style=&quot;font-size: 14px&quot;&gt;Comments&lt;/span&gt;" style="rounded=1;whiteSpace=wrap;html=1;fontSize=18;strokeColor=#00FF00;" vertex="1" parent="1">
                    <mxGeometry x="400" y="130" width="120" height="60" as="geometry"/>
                </mxCell>
                <mxCell id="6" value="" style="endArrow=classic;html=1;fontSize=14;exitX=0.5;exitY=1;exitDx=0;exitDy=0;entryX=0.617;entryY=-0.022;entryDx=0;entryDy=0;entryPerimeter=0;" edge="1" parent="1" source="2" target="4">
                    <mxGeometry width="50" height="50" relative="1" as="geometry">
                        <mxPoint x="390" y="210" as="sourcePoint"/>
                        <mxPoint x="440" y="160" as="targetPoint"/>
                    </mxGeometry>
                </mxCell>
                <mxCell id="9" value="" style="endArrow=classic;html=1;fontSize=14;exitX=0.25;exitY=1;exitDx=0;exitDy=0;entryX=0.789;entryY=0.013;entryDx=0;entryDy=0;entryPerimeter=0;" edge="1" parent="1" source="4" target="11">
                    <mxGeometry width="50" height="50" relative="1" as="geometry">
                        <mxPoint x="160" y="270" as="sourcePoint"/>
                        <mxPoint x="150" y="230" as="targetPoint"/>
                    </mxGeometry>
                </mxCell>
                <mxCell id="11" value="title" style="ellipse;whiteSpace=wrap;html=1;fontSize=14;strokeColor=#00FFFF;" vertex="1" parent="1">
                    <mxGeometry x="90" y="220" width="90" height="50" as="geometry"/>
                </mxCell>
                <mxCell id="12" value="Paragraphs" style="rounded=1;whiteSpace=wrap;html=1;fontSize=14;strokeColor=#006600;" vertex="1" parent="1">
                    <mxGeometry x="250" y="225" width="90" height="40" as="geometry"/>
                </mxCell>
                <mxCell id="13" value="" style="endArrow=classic;html=1;fontSize=14;exitX=0.75;exitY=1;exitDx=0;exitDy=0;entryX=0.63;entryY=0.008;entryDx=0;entryDy=0;entryPerimeter=0;" edge="1" parent="1" source="4" target="12">
                    <mxGeometry width="50" height="50" relative="1" as="geometry">
                        <mxPoint x="390" y="210" as="sourcePoint"/>
                        <mxPoint x="440" y="160" as="targetPoint"/>
                    </mxGeometry>
                </mxCell>
                <mxCell id="14" value="text" style="ellipse;whiteSpace=wrap;html=1;fontSize=14;strokeColor=#66FFFF;" vertex="1" parent="1">
                    <mxGeometry x="265" y="300" width="60" height="40" as="geometry"/>
                </mxCell>
                <mxCell id="15" value="" style="endArrow=classic;html=1;fontSize=14;exitX=0.5;exitY=1;exitDx=0;exitDy=0;entryX=0.5;entryY=0;entryDx=0;entryDy=0;" edge="1" parent="1" source="12" target="14">
                    <mxGeometry width="50" height="50" relative="1" as="geometry">
                        <mxPoint x="300" y="265" as="sourcePoint"/>
                        <mxPoint x="260" y="300" as="targetPoint"/>
                    </mxGeometry>
                </mxCell>
                <mxCell id="16" value="" style="shape=flexArrow;endArrow=classic;html=1;fontSize=14;strokeColor=#FFFF00;" edge="1" parent="1">
                    <mxGeometry width="50" height="50" relative="1" as="geometry">
                        <mxPoint x="260" y="320" as="sourcePoint"/>
                        <mxPoint x="210" y="320" as="targetPoint"/>
                    </mxGeometry>
                </mxCell>
                <mxCell id="17" value="&lt;div style=&quot;text-align: justify&quot;&gt;&lt;span&gt;&lt;i&gt;since we have multiple paragraphs, we will use map array method to iterate through the array, nesting the paragraph component within the article component (for each paragraph, making up the full conent of the article)&lt;/i&gt;&lt;/span&gt;&lt;/div&gt;" style="rounded=0;whiteSpace=wrap;html=1;fontSize=14;strokeColor=#CCCC00;align=right;" vertex="1" parent="1">
                    <mxGeometry x="20" y="300" width="190" height="160" as="geometry"/>
                </mxCell>
                <mxCell id="20" value="&lt;font style=&quot;font-size: 11px&quot;&gt;map through paragraphs array&lt;br&gt;(since there is more than one paragraph)&lt;br&gt;&lt;/font&gt;" style="text;html=1;align=center;verticalAlign=middle;resizable=0;points=[];autosize=1;strokeColor=none;fillColor=none;fontSize=14;" vertex="1" parent="1">
                    <mxGeometry x="205" y="180" width="210" height="40" as="geometry"/>
                </mxCell>
                <mxCell id="21" value="&lt;font style=&quot;font-size: 11px&quot;&gt;map through aricles array&lt;br&gt;(since there is more than one article&lt;br&gt;&lt;/font&gt;" style="text;html=1;align=center;verticalAlign=middle;resizable=0;points=[];autosize=1;strokeColor=none;fillColor=none;fontSize=14;" vertex="1" parent="1">
                    <mxGeometry x="105" y="90" width="190" height="40" as="geometry"/>
                </mxCell>
                <mxCell id="22" value="&lt;div style=&quot;text-align: justify&quot;&gt;&lt;span&gt;&lt;i&gt;since we have more than one article (in this case, two), we will use map array method to iterate through the array.&lt;/i&gt;&lt;/span&gt;&lt;/div&gt;" style="rounded=0;whiteSpace=wrap;html=1;fontSize=14;strokeColor=#CCCC00;align=right;" vertex="1" parent="1">
                    <mxGeometry x="-80" y="110" width="140" height="100" as="geometry"/>
                </mxCell>
                <mxCell id="23" value="" style="shape=flexArrow;endArrow=classic;html=1;fontSize=14;entryX=1;entryY=0.5;entryDx=0;entryDy=0;strokeColor=#FFFF00;" edge="1" parent="1" target="22">
                    <mxGeometry width="50" height="50" relative="1" as="geometry">
                        <mxPoint x="190" y="159.5" as="sourcePoint"/>
                        <mxPoint x="140" y="159.5" as="targetPoint"/>
                    </mxGeometry>
                </mxCell>
                <mxCell id="24" value="name" style="ellipse;whiteSpace=wrap;html=1;fontSize=11;strokeColor=#00FFFF;" vertex="1" parent="1">
                    <mxGeometry x="425" y="225" width="70" height="40" as="geometry"/>
                </mxCell>
                <mxCell id="25" value="text" style="ellipse;whiteSpace=wrap;html=1;fontSize=11;strokeColor=#00FFFF;" vertex="1" parent="1">
                    <mxGeometry x="550" y="225" width="70" height="40" as="geometry"/>
                </mxCell>
                <mxCell id="28" value="" style="endArrow=classic;html=1;fontSize=11;strokeColor=#FFFFFF;exitX=0.75;exitY=1;exitDx=0;exitDy=0;entryX=0.5;entryY=0;entryDx=0;entryDy=0;" edge="1" parent="1" source="5" target="25">
                    <mxGeometry width="50" height="50" relative="1" as="geometry">
                        <mxPoint x="460" y="340" as="sourcePoint"/>
                        <mxPoint x="510" y="290" as="targetPoint"/>
                    </mxGeometry>
                </mxCell>
                <mxCell id="33" value="" style="endArrow=classic;html=1;fontSize=14;exitX=1;exitY=0.5;exitDx=0;exitDy=0;entryX=0;entryY=0.5;entryDx=0;entryDy=0;" edge="1" parent="1" source="4" target="5">
                    <mxGeometry width="50" height="50" relative="1" as="geometry">
                        <mxPoint x="360" y="110" as="sourcePoint"/>
                        <mxPoint x="440" y="140" as="targetPoint"/>
                    </mxGeometry>
                </mxCell>
                <mxCell id="34" value="&lt;div style=&quot;text-align: justify&quot;&gt;&lt;span&gt;&lt;i&gt;since we have more than one comment for each article, we will use map array method to iterate through the comments array.&lt;/i&gt;&lt;/span&gt;&lt;/div&gt;" style="rounded=0;whiteSpace=wrap;html=1;fontSize=14;strokeColor=#CCCC00;align=right;" vertex="1" parent="1">
                    <mxGeometry x="687" y="100" width="140" height="120" as="geometry"/>
                </mxCell>
                <mxCell id="35" value="" style="shape=flexArrow;endArrow=classic;html=1;fontSize=14;strokeColor=#FFFF00;entryX=0;entryY=0.5;entryDx=0;entryDy=0;exitX=1;exitY=0.5;exitDx=0;exitDy=0;exitPerimeter=0;" edge="1" parent="1" target="34" source="5">
                    <mxGeometry width="50" height="50" relative="1" as="geometry">
                        <mxPoint x="495" y="150" as="sourcePoint"/>
                        <mxPoint x="640" y="140" as="targetPoint"/>
                        <Array as="points"/>
                    </mxGeometry>
                </mxCell>
                <mxCell id="37" value="&lt;font style=&quot;font-size: 11px&quot;&gt;map through comments array (since&lt;br&gt;there is more than one comment&lt;br&gt;&lt;/font&gt;" style="text;html=1;align=center;verticalAlign=middle;resizable=0;points=[];autosize=1;strokeColor=none;fillColor=none;fontSize=14;" vertex="1" parent="1">
                    <mxGeometry x="470" y="90" width="190" height="40" as="geometry"/>
                </mxCell>
            </root>
        </mxGraphModel>
    </diagram>
</mxfile>